<mxfile host="app.diagrams.net" modified="2021-12-14T12:10:40.341Z" agent="5.0 (Windows NT 10.0; Win64; x64) AppleWebKit/537.36 (KHTML, like Gecko) Chrome/95.0.4638.69 Safari/537.36" etag="D0Gwbz4pk7-el59S2Yc9" version="15.7.3" type="github">
  <diagram name="Page-1" id="bfe91b75-5d2c-26a0-9c1d-138518896778">
    <mxGraphModel dx="3944" dy="2374" grid="0" gridSize="10" guides="1" tooltips="1" connect="1" arrows="1" fold="1" page="1" pageScale="1" pageWidth="1100" pageHeight="850" background="none" math="0" shadow="0">
      <root>
        <mxCell id="0" />
        <mxCell id="1" parent="0" />
        <mxCell id="g_l01eGZdjjxNMXhL6D_-4" value="" style="sketch=0;points=[[0.5,0,0],[1,0.5,0],[0.5,1,0],[0,0.5,0],[0.145,0.145,0],[0.8555,0.145,0],[0.855,0.8555,0],[0.145,0.855,0]];verticalLabelPosition=bottom;html=1;verticalAlign=top;aspect=fixed;align=center;pointerEvents=1;shape=mxgraph.cisco19.rect;prIcon=router;fillColor=#FFB840;strokeColor=#fff;shadow=0;" vertex="1" parent="1">
          <mxGeometry x="-336" y="-621" width="50" height="50" as="geometry" />
        </mxCell>
        <mxCell id="g_l01eGZdjjxNMXhL6D_-5" value="" style="sketch=0;points=[[0.5,0,0],[1,0.5,0],[0.5,1,0],[0,0.5,0],[0.145,0.145,0],[0.8555,0.145,0],[0.855,0.8555,0],[0.145,0.855,0]];verticalLabelPosition=bottom;html=1;verticalAlign=top;aspect=fixed;align=center;pointerEvents=1;shape=mxgraph.cisco19.rect;prIcon=router;fillColor=#1F7A68;strokeColor=#fff;shadow=0;" vertex="1" parent="1">
          <mxGeometry x="-565" y="-302" width="50" height="50" as="geometry" />
        </mxCell>
        <mxCell id="g_l01eGZdjjxNMXhL6D_-6" value="" style="sketch=0;points=[[0.5,0,0],[1,0.5,0],[0.5,1,0],[0,0.5,0],[0.145,0.145,0],[0.8555,0.145,0],[0.855,0.8555,0],[0.145,0.855,0]];verticalLabelPosition=bottom;html=1;verticalAlign=top;aspect=fixed;align=center;pointerEvents=1;shape=mxgraph.cisco19.rect;prIcon=router;fillColor=#B62E40;strokeColor=#fff;shadow=0;" vertex="1" parent="1">
          <mxGeometry x="-72" y="-425" width="50" height="50" as="geometry" />
        </mxCell>
        <mxCell id="g_l01eGZdjjxNMXhL6D_-8" value="" style="sketch=0;points=[[0.5,0,0],[1,0.5,0],[0.5,1,0],[0,0.5,0],[0.145,0.145,0],[0.8555,0.145,0],[0.855,0.8555,0],[0.145,0.855,0]];verticalLabelPosition=bottom;html=1;verticalAlign=top;aspect=fixed;align=center;pointerEvents=1;shape=mxgraph.cisco19.rect;prIcon=router;fillColor=#FFB840;strokeColor=#fff;shadow=0;" vertex="1" parent="1">
          <mxGeometry x="767" y="-689" width="50" height="50" as="geometry" />
        </mxCell>
        <mxCell id="g_l01eGZdjjxNMXhL6D_-9" value="" style="sketch=0;points=[[0.5,0,0],[1,0.5,0],[0.5,1,0],[0,0.5,0],[0.145,0.145,0],[0.8555,0.145,0],[0.855,0.8555,0],[0.145,0.855,0]];verticalLabelPosition=bottom;html=1;verticalAlign=top;aspect=fixed;align=center;pointerEvents=1;shape=mxgraph.cisco19.rect;prIcon=router;fillColor=#B62E40;strokeColor=#fff;shadow=0;" vertex="1" parent="1">
          <mxGeometry x="767" y="-587" width="50" height="50" as="geometry" />
        </mxCell>
        <mxCell id="g_l01eGZdjjxNMXhL6D_-10" value="" style="sketch=0;points=[[0.5,0,0],[1,0.5,0],[0.5,1,0],[0,0.5,0],[0.145,0.145,0],[0.8555,0.145,0],[0.855,0.8555,0],[0.145,0.855,0]];verticalLabelPosition=bottom;html=1;verticalAlign=top;aspect=fixed;align=center;pointerEvents=1;shape=mxgraph.cisco19.rect;prIcon=router;fillColor=#1F7A68;strokeColor=#fff;shadow=0;" vertex="1" parent="1">
          <mxGeometry x="767" y="-485" width="50" height="50" as="geometry" />
        </mxCell>
        <mxCell id="g_l01eGZdjjxNMXhL6D_-11" value="&lt;font style=&quot;font-size: 40px&quot; color=&quot;#383838&quot; face=&quot;Times New Roman&quot;&gt;&lt;b&gt;Cluster Head&lt;/b&gt;&lt;/font&gt;" style="text;html=1;resizable=0;autosize=1;align=center;verticalAlign=middle;points=[];fillColor=none;strokeColor=none;rounded=0;shadow=0;sketch=0;" vertex="1" parent="1">
          <mxGeometry x="829" y="-677.5" width="237" height="27" as="geometry" />
        </mxCell>
        <mxCell id="g_l01eGZdjjxNMXhL6D_-12" value="&lt;font style=&quot;font-size: 40px&quot; color=&quot;#383838&quot; face=&quot;Times New Roman&quot;&gt;&lt;b&gt;Cluster Member&lt;/b&gt;&lt;/font&gt;" style="text;html=1;resizable=0;autosize=1;align=center;verticalAlign=middle;points=[];fillColor=none;strokeColor=none;rounded=0;shadow=0;sketch=0;" vertex="1" parent="1">
          <mxGeometry x="833" y="-575.5" width="293" height="27" as="geometry" />
        </mxCell>
        <mxCell id="g_l01eGZdjjxNMXhL6D_-13" value="&lt;font style=&quot;font-size: 40px&quot; color=&quot;#383838&quot; face=&quot;Times New Roman&quot;&gt;&lt;b&gt;Gateway Node&lt;/b&gt;&lt;/font&gt;" style="text;html=1;resizable=0;autosize=1;align=center;verticalAlign=middle;points=[];fillColor=none;strokeColor=none;rounded=0;shadow=0;sketch=0;" vertex="1" parent="1">
          <mxGeometry x="833" y="-473.5" width="260" height="27" as="geometry" />
        </mxCell>
      </root>
    </mxGraphModel>
  </diagram>
</mxfile>
